<?xml version="1.0" encoding="UTF-8" standalone="no"?>
<!-- Created with Inkscape (http://www.inkscape.org/) -->

<svg
   xmlns:dc="http://purl.org/dc/elements/1.1/"
   xmlns:cc="http://creativecommons.org/ns#"
   xmlns:rdf="http://www.w3.org/1999/02/22-rdf-syntax-ns#"
   xmlns:svg="http://www.w3.org/2000/svg"
   xmlns="http://www.w3.org/2000/svg"
   xmlns:sodipodi="http://sodipodi.sourceforge.net/DTD/sodipodi-0.dtd"
   xmlns:inkscape="http://www.inkscape.org/namespaces/inkscape"
   width="48"
   height="48"
   viewBox="0 0 48 48"
   id="svg2"
   version="1.1"
   inkscape:version="0.91 r13725"
   sodipodi:docname="angle_logo.svg">
  <defs
     id="defs4" />
  <sodipodi:namedview
     id="base"
     pagecolor="#ffffff"
     bordercolor="#666666"
     borderopacity="1.0"
     inkscape:pageopacity="0.0"
     inkscape:pageshadow="2"
     inkscape:zoom="15.839192"
     inkscape:cx="14.592201"
     inkscape:cy="32.558391"
     inkscape:document-units="px"
     inkscape:current-layer="layer1"
     showgrid="false"
     units="px"
     inkscape:window-width="1894"
     inkscape:window-height="1032"
     inkscape:window-x="8"
     inkscape:window-y="30"
     inkscape:window-maximized="0" />
  <metadata
     id="metadata7">
    <rdf:RDF>
      <cc:Work
         rdf:about="">
        <dc:format>image/svg+xml</dc:format>
        <dc:type
           rdf:resource="http://purl.org/dc/dcmitype/StillImage" />
        <dc:title></dc:title>
      </cc:Work>
    </rdf:RDF>
  </metadata>
  <g
     inkscape:label="Ebene 1"
     inkscape:groupmode="layer"
     id="layer1"
     transform="translate(0,-1004.3622)">
    <path
       style="color:#000000;clip-rule:nonzero;display:inline;overflow:visible;visibility:visible;opacity:1;isolation:auto;mix-blend-mode:normal;color-interpolation:sRGB;color-interpolation-filters:linearRGB;solid-color:#000000;solid-opacity:1;fill:#000000;fill-opacity:1;fill-rule:evenodd;stroke:none;stroke-width:1.19730532px;stroke-linecap:butt;stroke-linejoin:miter;stroke-miterlimit:4;stroke-dasharray:none;stroke-dashoffset:0;stroke-opacity:1;color-rendering:auto;image-rendering:auto;shape-rendering:auto;text-rendering:auto;enable-background:accumulate"
       d="M 24.419922 1.15625 A 22.886269 22.886269 0 0 0 7.9023438 7.8574219 A 22.886269 22.886269 0 0 0 7.0761719 39.310547 L 6.8457031 39.542969 C 6.3401294 40.050962 7.1582891 41.692014 8.6816406 43.222656 L 9.2460938 43.789062 C 10.769445 45.319705 12.402629 46.142759 12.908203 45.634766 L 45.494141 12.892578 C 45.999714 12.384585 45.179602 10.743533 43.65625 9.2128906 L 43.09375 8.6464844 C 41.570398 7.1158423 39.937214 6.292788 39.431641 6.8007812 L 39.289062 6.9453125 A 22.886269 22.886269 0 0 0 24.419922 1.15625 z M 24.466797 6.3261719 L 24.466797 6.3300781 C 24.527128 6.3290781 24.587004 6.3355625 24.646484 6.3515625 C 25.122357 6.4790625 25.359649 7.1233219 25.179688 7.7949219 L 24.910156 8.8027344 C 24.898536 8.8459344 24.873795 8.8789219 24.859375 8.9199219 C 26.553158 9.2265219 28.196435 9.8577348 29.699219 10.802734 C 29.736575 10.739734 29.768016 10.673141 29.822266 10.619141 L 30.867188 9.5742188 C 31.21555 9.2258187 31.774683 9.2258188 32.123047 9.5742188 C 32.47141 9.9225186 32.47141 10.483631 32.123047 10.832031 L 31.130859 11.826172 C 31.466544 12.103372 31.793409 12.396937 32.107422 12.710938 L 32.591797 13.193359 L 25.193359 20.591797 A 3.3776977 3.3776977 0 0 1 26.808594 23.46875 A 3.3776977 3.3776977 0 0 1 23.431641 26.847656 A 3.3776977 3.3776977 0 0 1 20.552734 25.232422 L 13.658203 32.126953 L 13.173828 32.611328 L 12.689453 32.126953 C 12.375438 31.812953 12.083838 31.484138 11.806641 31.148438 L 10.84375 32.111328 C 10.495387 32.459728 9.9985746 32.522053 9.7285156 32.251953 L 9.4453125 31.970703 C 9.1752545 31.700603 9.2395276 31.201816 9.5878906 30.853516 L 10.759766 29.679688 C 9.8594392 28.237686 9.2401383 26.670281 8.9257812 25.050781 L 7.6816406 25.386719 C 7.0529006 25.555219 6.455262 25.355653 6.34375 24.939453 L 6.2871094 24.722656 C 6.1755974 24.306556 6.5919621 23.836469 7.2207031 23.667969 L 8.5644531 23.308594 C 8.6155001 23.298594 8.6625206 23.299062 8.7128906 23.289062 C 8.6170446 21.770763 8.7682971 20.242125 9.1738281 18.765625 C 9.1293851 18.755625 9.0856356 18.767859 9.0410156 18.755859 L 7.4375 18.326172 C 7.001635 18.209372 6.7445381 17.764025 6.8613281 17.328125 L 6.9003906 17.185547 C 7.0171806 16.749647 7.4625735 16.492575 7.8984375 16.609375 L 9.5019531 17.039062 C 9.5844871 17.061462 9.6542763 17.103484 9.7226562 17.146484 C 10.270028 15.826284 11.040767 14.580672 12.017578 13.451172 C 11.91948 13.384272 11.821419 13.317564 11.730469 13.226562 L 10.951172 12.445312 C 10.459506 11.953713 10.308624 11.314366 10.613281 11.009766 L 10.771484 10.851562 C 11.076141 10.546863 11.717319 10.697753 12.208984 11.189453 L 12.988281 11.96875 C 13.075425 12.05585 13.138045 12.150141 13.203125 12.244141 C 14.319747 11.234041 15.558902 10.436875 16.875 9.859375 C 16.828517 9.759175 16.778807 9.661675 16.748047 9.546875 L 16.513672 8.6679688 C 16.33371 7.9963686 16.523284 7.3654062 16.939453 7.2539062 L 17.154297 7.1953125 C 17.570466 7.0838125 18.050506 7.5353314 18.230469 8.2070312 L 18.466797 9.0878906 C 18.482237 9.1456906 18.480144 9.1988594 18.490234 9.2558594 C 19.763798 8.8795594 21.080814 8.6914062 22.398438 8.6914062 C 22.647479 8.6914062 22.895785 8.7125625 23.144531 8.7265625 C 23.148871 8.5999625 23.155906 8.4722436 23.191406 8.3398438 L 23.462891 7.3320312 C 23.620358 6.7443313 24.044478 6.3361719 24.466797 6.3261719 z M 22.398438 10.052734 C 19.236534 10.052734 16.074616 11.257428 13.658203 13.673828 C 8.9913882 18.340628 8.8764594 25.765147 13.222656 30.623047 L 20.070312 23.775391 A 3.3776977 3.3776977 0 0 1 20.052734 23.46875 A 3.3776977 3.3776977 0 0 1 23.431641 20.091797 A 3.3776977 3.3776977 0 0 1 23.738281 20.107422 L 30.605469 13.240234 C 28.262989 11.144534 25.343006 10.052734 22.398438 10.052734 z "
       transform="translate(0,1004.3622)"
       id="rect41675" />
  </g>
</svg>
