<?xml version="1.0" encoding="UTF-8" standalone="no"?>
<!-- Created with Inkscape (http://www.inkscape.org/) -->

<svg
   xmlns:dc="http://purl.org/dc/elements/1.1/"
   xmlns:cc="http://creativecommons.org/ns#"
   xmlns:rdf="http://www.w3.org/1999/02/22-rdf-syntax-ns#"
   xmlns:svg="http://www.w3.org/2000/svg"
   xmlns="http://www.w3.org/2000/svg"
   xmlns:sodipodi="http://sodipodi.sourceforge.net/DTD/sodipodi-0.dtd"
   xmlns:inkscape="http://www.inkscape.org/namespaces/inkscape"
   sodipodi:docname="icon4.svg"
   inkscape:version="0.91 r13725"
   version="1.1"
   id="svg2"
   viewBox="0 0 48 48"
   height="48"
   width="48"
   inkscape:export-filename="/home/alexanderdobler/ownCloud/Dokumente/HfT/Assistenz/01_Projekte/Arduino2Android/02_Assets/ic_launcher.png"
   inkscape:export-xdpi="90"
   inkscape:export-ydpi="90">
  <sodipodi:namedview
     inkscape:window-maximized="0"
     inkscape:window-y="30"
     inkscape:window-x="8"
     inkscape:window-height="1032"
     inkscape:window-width="1894"
     width="128px"
     units="px"
     showgrid="true"
     inkscape:current-layer="layer1"
     inkscape:document-units="px"
     inkscape:cy="27.403867"
     inkscape:cx="24.27357"
     inkscape:zoom="11.2"
     inkscape:pageshadow="2"
     inkscape:pageopacity="0.0"
     borderopacity="1.0"
     bordercolor="#666666"
     pagecolor="#ffffff"
     id="base">
    <inkscape:grid
       dotted="false"
       empspacing="4"
       spacingy="2"
       spacingx="2"
       id="grid24041"
       type="xygrid" />
  </sodipodi:namedview>
  <defs
     id="defs4">
    <symbol
       id="symbol4591">
      <title
         id="title4593">Memory</title>
      <path
         id="path4595"
         style="stroke:none"
         d="m 30,18 -12,0 0,12 12,0 0,-12 z m -4,8 -4,0 0,-4 4,0 0,4 z m 16,-4 0,-4 -4,0 0,-4 c 0,-2.21 -1.79,-4 -4,-4 l -4,0 0,-4 -4,0 0,4 -4,0 0,-4 -4,0 0,4 -4,0 c -2.21,0 -4,1.79 -4,4 l 0,4 -4,0 0,4 4,0 0,4 -4,0 0,4 4,0 0,4 c 0,2.21 1.79,4 4,4 l 4,0 0,4 4,0 0,-4 4,0 0,4 4,0 0,-4 4,0 c 2.21,0 4,-1.79 4,-4 l 0,-4 4,0 0,-4 -4,0 0,-4 4,0 z m -8,12 -20,0 0,-20 20,0 0,20 z"
         inkscape:connector-curvature="0" />
    </symbol>
    <clipPath
       clipPathUnits="userSpaceOnUse"
       id="clipPath23401">
      <rect
         style="fill:#dd0101;fill-opacity:1;fill-rule:evenodd;stroke:none;stroke-width:0;stroke-linecap:butt;stroke-linejoin:miter;stroke-miterlimit:4;stroke-dasharray:none;stroke-opacity:1"
         id="rect23403"
         width="112"
         height="112"
         x="8"
         y="932.36218"
         ry="4.0000172" />
    </clipPath>
    <clipPath
       id="clipPath42842"
       clipPathUnits="userSpaceOnUse">
      <rect
         style="fill:#dd0101;fill-opacity:1;fill-rule:evenodd;stroke:none;stroke-width:0;stroke-linecap:butt;stroke-linejoin:miter;stroke-miterlimit:4;stroke-dasharray:none;stroke-opacity:1"
         id="rect42844"
         width="112"
         height="112"
         x="8"
         y="7.9999828"
         ry="6.0000172" />
    </clipPath>
    <mask
       maskUnits="userSpaceOnUse"
       id="mask63285">
      <rect
         style="fill:#dd0101;fill-opacity:1;fill-rule:evenodd;stroke:none;stroke-width:0;stroke-linecap:butt;stroke-linejoin:miter;stroke-miterlimit:4;stroke-dasharray:none;stroke-opacity:1"
         id="rect63287"
         width="112"
         height="112"
         x="8"
         y="932.36218"
         ry="6.0000172" />
    </mask>
    <clipPath
       clipPathUnits="userSpaceOnUse"
       id="clipPath22762">
      <rect
         inkscape:export-ydpi="830"
         inkscape:export-xdpi="830"
         style="fill:#dd0101;fill-opacity:1;fill-rule:evenodd;stroke:none;stroke-width:0;stroke-linecap:butt;stroke-linejoin:miter;stroke-miterlimit:4;stroke-dasharray:none;stroke-opacity:1"
         id="rect22764"
         width="112"
         height="112"
         x="8"
         y="932.36218"
         ry="6.0000172" />
    </clipPath>
  </defs>
  <metadata
     id="metadata7">
    <rdf:RDF>
      <cc:Work
         rdf:about="">
        <dc:format>image/svg+xml</dc:format>
        <dc:type
           rdf:resource="http://purl.org/dc/dcmitype/StillImage" />
        <dc:title></dc:title>
      </cc:Work>
    </rdf:RDF>
  </metadata>
  <g
     transform="translate(0,-1004.3622)"
     id="layer1"
     inkscape:groupmode="layer"
     inkscape:label="Ebene 1">
    <g
       id="g22897"
       transform="matrix(0.35681456,0,0,0.35681456,1.1351124,675.72882)">
      <rect
         inkscape:export-ydpi="830"
         inkscape:export-xdpi="830"
         style="fill:#dd0101;fill-opacity:1;fill-rule:evenodd;stroke:none;stroke-width:0;stroke-linecap:butt;stroke-linejoin:miter;stroke-miterlimit:4;stroke-dasharray:none;stroke-opacity:1"
         id="rect27257"
         width="112"
         height="112"
         x="8"
         y="932.36218"
         ry="6.0000172" />
      <g
         style="fill:none;stroke:#00979c;stroke-width:60;stroke-opacity:1"
         id="g4"
         transform="matrix(0.138537,0,0,0.138537,8.2281309,949.36587)" />
      <g
         id="g62072"
         transform="translate(1.9185727,0)">
        <text
           sodipodi:linespacing="125%"
           id="text62060"
           y="964.2193"
           x="21.857141"
           style="font-style:normal;font-weight:normal;font-size:40px;line-height:125%;font-family:sans-serif;letter-spacing:0px;word-spacing:0px;fill:#000000;fill-opacity:1;stroke:none;stroke-width:1px;stroke-linecap:butt;stroke-linejoin:miter;stroke-opacity:1"
           xml:space="preserve"><tspan
             style="font-style:normal;font-variant:normal;font-weight:normal;font-stretch:normal;font-size:45px;font-family:'Ubuntu Mono';-inkscape-font-specification:'Ubuntu Mono';fill:#ffffff;fill-opacity:1"
             y="964.2193"
             x="21.857141"
             id="tspan62062"
             sodipodi:role="line">H</tspan></text>
        <text
           xml:space="preserve"
           style="font-style:normal;font-weight:normal;font-size:40px;line-height:125%;font-family:sans-serif;letter-spacing:0px;word-spacing:0px;fill:#000000;fill-opacity:1;stroke:none;stroke-width:1px;stroke-linecap:butt;stroke-linejoin:miter;stroke-opacity:1"
           x="79.535713"
           y="964.2193"
           id="text62064"
           sodipodi:linespacing="125%"><tspan
             sodipodi:role="line"
             id="tspan62066"
             x="79.535713"
             y="964.2193"
             style="font-style:normal;font-variant:normal;font-weight:normal;font-stretch:normal;font-size:45px;font-family:'Ubuntu Mono';-inkscape-font-specification:'Ubuntu Mono';fill:#ffffff;fill-opacity:1">T</tspan></text>
        <text
           sodipodi:linespacing="125%"
           id="text62068"
           y="964.2193"
           x="50.489635"
           style="font-style:normal;font-weight:normal;font-size:40px;line-height:125%;font-family:sans-serif;letter-spacing:0px;word-spacing:0px;fill:#000000;fill-opacity:1;stroke:none;stroke-width:1px;stroke-linecap:butt;stroke-linejoin:miter;stroke-opacity:1"
           xml:space="preserve"><tspan
             style="font-style:normal;font-variant:normal;font-weight:normal;font-stretch:normal;font-size:45px;font-family:'Ubuntu Mono';-inkscape-font-specification:'Ubuntu Mono';fill:#ffffff;fill-opacity:1"
             y="964.2193"
             x="50.489635"
             id="tspan62070"
             sodipodi:role="line">F</tspan></text>
      </g>
      <g
         mask="url(#mask63285)"
         id="g62999"
         clip-path="url(#clipPath22762)">
        <g
           style="color:#000000;clip-rule:nonzero;display:inline;overflow:visible;visibility:visible;opacity:1;isolation:auto;mix-blend-mode:normal;color-interpolation:sRGB;color-interpolation-filters:linearRGB;solid-color:#000000;solid-opacity:1;fill:#000000;fill-opacity:1;fill-rule:evenodd;stroke:none;stroke-width:1.19730532px;stroke-linecap:butt;stroke-linejoin:miter;stroke-miterlimit:4;stroke-dasharray:none;stroke-dashoffset:0;stroke-opacity:1;color-rendering:auto;image-rendering:auto;shape-rendering:auto;text-rendering:auto;enable-background:accumulate"
           id="g63001">
          <path
             inkscape:connector-curvature="0"
             d="m 36.113291,1015.9268 -0.396994,0.1987 70.710683,70.7107 0.39699,-0.1987 z"
             id="path63003" />
          <path
             inkscape:connector-curvature="0"
             d="m 35.716297,1016.1255 c -0.86999,0.4333 -0.530892,2.8967 0.762106,5.5244 l 70.710677,70.7107 c -1.293,-2.6277 -1.63209,-5.0911 -0.7621,-5.5244 z"
             id="path63005" />
          <path
             inkscape:connector-curvature="0"
             d="m 36.478403,1021.6499 0.479436,0.9726 70.710681,70.7107 -0.47944,-0.9726 z"
             id="path63007" />
          <path
             inkscape:connector-curvature="0"
             d="m 36.957839,1022.6225 c 0.656519,1.334 1.428527,2.446 2.143381,3.1608 l 70.71068,70.7107 c -0.71486,-0.7149 -1.48686,-1.8269 -2.14338,-3.1608 z"
             id="path63009" />
          <path
             inkscape:connector-curvature="0"
             d="m 39.10122,1025.7833 c 0.693139,0.6931 1.332543,1.0129 1.760829,0.7996 l 70.710681,70.7107 c -0.42829,0.2133 -1.06769,-0.1065 -1.76083,-0.7996 z"
             id="path63011" />
          <path
             inkscape:connector-curvature="0"
             d="m 40.862049,1026.5829 56.073742,-27.92765 70.710679,70.71065 -56.07374,27.9277 z"
             id="path63013" />
          <path
             inkscape:connector-curvature="0"
             d="m 96.935791,998.65525 c 0.869993,-0.43329 0.528385,-2.89758 -0.764647,-5.52515 l 70.710676,70.7107 c 1.29303,2.6275 1.63464,5.0918 0.76465,5.5251 z"
             id="path63015" />
          <path
             inkscape:connector-curvature="0"
             d="m 96.171144,993.1301 -0.476923,-0.9718 70.710679,70.7107 0.47692,0.9718 z"
             id="path63017" />
          <path
             inkscape:connector-curvature="0"
             d="m 95.694221,992.1583 c -0.656462,-1.334 -1.428434,-2.44596 -2.143271,-3.16079 l 70.71068,70.71069 c 0.71483,0.7148 1.48681,1.8268 2.14327,3.1608 z"
             id="path63019" />
          <path
             inkscape:connector-curvature="0"
             d="m 93.55095,988.99751 c -0.693173,-0.69318 -1.332621,-1.01293 -1.76092,-0.79962 l 70.71068,70.71071 c 0.4283,-0.2133 1.06774,0.1064 1.76092,0.7996 z"
             id="path63021" />
          <path
             inkscape:connector-curvature="0"
             d="m 91.79003,988.19789 -0.2459,0.12383 70.71068,70.71068 0.2459,-0.1238 z"
             id="path63023" />
          <path
             inkscape:connector-curvature="0"
             d="m 72.769156,981.09464 -0.0016,0.005 70.710674,70.71066 0.002,-0.01 z"
             id="path63025" />
          <path
             inkscape:connector-curvature="0"
             d="m 72.767556,981.09964 c 0.07783,0.0252 0.152202,0.0588 0.221519,0.10563 l 70.710675,70.71063 c -0.0693,-0.047 -0.14369,-0.08 -0.22152,-0.1056 z"
             id="path63027" />
          <path
             inkscape:connector-curvature="0"
             d="m 72.989075,981.20527 c 0.04868,0.0324 0.0933,0.0691 0.133833,0.10967 l 70.710682,70.71066 c -0.0405,-0.04 -0.0851,-0.077 -0.13384,-0.1097 z"
             id="path63029" />
          <path
             inkscape:connector-curvature="0"
             d="m 73.122908,981.31494 c 0.422476,0.42247 0.401802,1.26005 -0.07507,1.97613 l 70.710672,70.71063 c 0.47688,-0.716 0.49755,-1.5536 0.0751,-1.9761 z"
             id="path63031" />
          <path
             inkscape:connector-curvature="0"
             d="m 73.047835,983.29107 -0.783593,1.17787 70.710678,70.71066 0.78359,-1.1779 z"
             id="path63033" />
          <path
             inkscape:connector-curvature="0"
             d="m 72.264242,984.46894 c -0.03365,0.0504 -0.07978,0.0821 -0.116103,0.12853 l 70.710681,70.71063 c 0.0363,-0.046 0.0824,-0.078 0.1161,-0.1285 z"
             id="path63035" />
          <path
             inkscape:connector-curvature="0"
             d="m 72.148139,984.59747 c 1.501115,0.8294 2.891171,1.8721 4.126173,3.1071 l 70.710678,70.71073 c -1.235,-1.235 -2.62506,-2.2777 -4.12617,-3.1072 z"
             id="path63037" />
          <path
             inkscape:connector-curvature="0"
             d="m 76.274312,987.70457 c 0.445929,0.44593 0.871644,0.91694 1.275072,1.41202 l 70.710676,70.71071 c -0.40343,-0.4951 -0.82914,-0.9661 -1.27507,-1.412 z"
             id="path63039" />
          <path
             inkscape:connector-curvature="0"
             d="m 77.549384,989.11659 c 0.07533,-0.0647 0.14463,-0.13665 0.237758,-0.1825 l 70.710678,70.71071 c -0.0931,0.046 -0.16243,0.1178 -0.23776,0.1825 z"
             id="path63041" />
          <path
             inkscape:connector-curvature="0"
             d="m 77.787142,988.93409 1.795922,-0.8891 70.710676,70.71071 -1.79592,0.8891 z"
             id="path63043" />
          <path
             inkscape:connector-curvature="0"
             d="m 79.583064,988.04499 c 0.476671,-0.23602 1.029156,-0.13041 1.384187,0.22462 l 70.710679,70.71069 c -0.35503,-0.355 -0.90752,-0.4607 -1.38419,-0.2246 z"
             id="path63045" />
          <path
             inkscape:connector-curvature="0"
             d="m 80.967251,988.26961 c 0.09093,0.0909 0.168905,0.19822 0.229339,0.32032 l 70.71068,70.71067 c -0.0604,-0.1221 -0.13841,-0.2294 -0.22934,-0.3203 z"
             id="path63047" />
          <path
             inkscape:connector-curvature="0"
             d="m 81.19659,988.58993 c 0.296442,0.59865 0.05297,1.31957 -0.545783,1.61603 l 70.710683,70.71064 c 0.59875,-0.2964 0.84222,-1.0173 0.54578,-1.616 z"
             id="path63049" />
          <path
             inkscape:connector-curvature="0"
             d="m 80.650807,990.20596 -1.706139,0.84676 70.710682,70.71068 1.70614,-0.8468 z"
             id="path63051" />
          <path
             inkscape:connector-curvature="0"
             d="m 78.944668,991.05272 c 0.311008,0.50179 0.60358,1.02081 0.870778,1.56047 l 70.710674,70.71071 c -0.26719,-0.5397 -0.55977,-1.0587 -0.87077,-1.5605 z"
             id="path63053" />
          <path
             inkscape:connector-curvature="0"
             d="m 79.815446,992.61319 0.412995,0.83 70.710679,70.71071 -0.413,-0.83 z"
             id="path63055" />
          <path
             inkscape:connector-curvature="0"
             d="m 80.228441,993.44319 -12.715828,6.29527 70.710677,70.71064 12.71583,-6.2952 z"
             id="path63057" />
          <path
             inkscape:connector-curvature="0"
             d="m 59.536721,1003.6871 -11.849688,5.8663 70.710677,70.7106 11.84969,-5.8663 z"
             id="path63059" />
          <path
             inkscape:connector-curvature="0"
             d="m 47.687033,1009.5534 -0.832516,0.4122 70.710683,70.7106 0.83251,-0.4122 z"
             id="path63061" />
          <path
             inkscape:connector-curvature="0"
             d="m 46.854517,1009.9656 -0.412133,-0.8326 70.710676,70.7106 0.41214,0.8326 z"
             id="path63063" />
          <path
             inkscape:connector-curvature="0"
             d="m 46.442384,1009.133 c -0.267201,-0.5396 -0.499171,-1.0886 -0.709662,-1.6402 l 70.710678,70.7106 c 0.21049,0.5516 0.44246,1.1006 0.70966,1.6402 z"
             id="path63065" />
          <path
             inkscape:connector-curvature="0"
             d="m 45.732722,1007.4928 -1.654912,0.8193 70.71068,70.7106 1.65491,-0.8193 z"
             id="path63067" />
          <path
             inkscape:connector-curvature="0"
             d="m 44.07781,1008.3121 c -0.502913,0.2491 -1.052742,0.1933 -1.352053,-0.106 l 70.710673,70.7107 c 0.29932,0.2993 0.84915,0.355 1.35206,0.1059 z"
             id="path63069" />
          <path
             inkscape:connector-curvature="0"
             d="m 42.725757,1008.2061 c -0.05707,-0.057 -0.105026,-0.123 -0.141818,-0.1973 l 70.710681,70.7106 c 0.0368,0.074 0.0847,0.1403 0.14181,0.1974 z"
             id="path63071" />
          <path
             inkscape:connector-curvature="0"
             d="m 42.583939,1008.0088 -0.241788,-0.4843 70.710679,70.7106 0.24179,0.4843 z"
             id="path63073" />
          <path
             inkscape:connector-curvature="0"
             d="m 42.342151,1007.5245 c -0.229796,-0.4641 0.06921,-1.0771 0.667945,-1.3735 l 70.710674,70.7106 c -0.59873,0.2964 -0.89774,0.9094 -0.66794,1.3735 z"
             id="path63075" />
          <path
             inkscape:connector-curvature="0"
             d="m 43.010096,1006.151 2.014933,-0.9995 70.710681,70.7106 -2.01494,0.9995 z"
             id="path63077" />
          <path
             inkscape:connector-curvature="0"
             d="m 45.025029,1005.1515 c -0.530997,-2.2435 -0.646569,-4.5259 -0.347757,-6.74302 l 70.710678,70.71072 c -0.29881,2.217 -0.18324,4.4994 0.34776,6.7429 z"
             id="path63079" />
          <path
             inkscape:connector-curvature="0"
             d="m 44.677272,998.40848 -1.74422,-0.1083 70.710678,70.71072 1.74422,0.1083 z"
             id="path63081" />
          <path
             inkscape:connector-curvature="0"
             d="m 42.933052,998.30018 c -0.521337,-0.0333 -0.972757,-0.22751 -1.246666,-0.50142 l 70.710674,70.71064 c 0.27391,0.2739 0.72533,0.4681 1.24667,0.5015 z"
             id="path63083" />
          <path
             inkscape:connector-curvature="0"
             d="m 41.686386,997.79876 c -0.188923,-0.18893 -0.2934,-0.41577 -0.278126,-0.65391 l 70.71068,70.71065 c -0.0153,0.2382 0.0892,0.465 0.27812,0.6539 z"
             id="path63085" />
          <path
             inkscape:connector-curvature="0"
             d="m 41.40826,997.14485 0.02131,-0.30312 70.71068,70.71067 -0.0213,0.3031 z"
             id="path63087" />
          <path
             inkscape:connector-curvature="0"
             d="m 41.42957,996.84173 c 0.03726,-0.58292 0.776125,-1.00605 1.65711,-0.94991 l 70.71068,70.71068 c -0.88099,-0.056 -1.61985,0.367 -1.65711,0.9499 z"
             id="path63089" />
          <path
             inkscape:connector-curvature="0"
             d="m 43.08668,995.89182 1.882341,0.12149 70.710679,70.71069 -1.88234,-0.1215 z"
             id="path63091" />
          <path
             inkscape:connector-curvature="0"
             d="m 44.969021,996.01331 c 0.07006,0.009 0.130478,0.0293 0.198711,0.0407 l 70.710678,70.71069 c -0.0682,-0.011 -0.12865,-0.032 -0.19871,-0.041 z"
             id="path63093" />
          <path
             inkscape:connector-curvature="0"
             d="m 45.167732,996.05401 c 0.535679,-1.99235 1.393328,-3.89074 2.555035,-5.6118 l 70.710683,70.71069 c -1.16171,1.721 -2.01936,3.6194 -2.55504,5.6118 z"
             id="path63095" />
          <path
             inkscape:connector-curvature="0"
             d="m 47.722767,990.44221 c -0.05277,-0.0321 -0.113307,-0.0383 -0.166318,-0.0704 l 70.710681,70.71069 c 0.053,0.032 0.11355,0.038 0.16632,0.07 z"
             id="path63097" />
          <path
             inkscape:connector-curvature="0"
             d="m 47.556449,990.37181 -1.873783,-1.24774 70.710674,70.71063 1.87379,1.2478 z"
             id="path63099" />
          <path
             inkscape:connector-curvature="0"
             d="m 45.682666,989.12407 c -0.06267,-0.0417 -0.119701,-0.0887 -0.170904,-0.13989 l 70.710678,70.71072 c 0.0512,0.051 0.10824,0.098 0.1709,0.1398 z"
             id="path63101" />
          <path
             inkscape:connector-curvature="0"
             d="m 45.511762,988.98418 c -0.364935,-0.36493 -0.433732,-0.94578 -0.136271,-1.39248 l 70.710679,70.7107 c -0.29746,0.4467 -0.22866,1.0275 0.13627,1.3925 z"
             id="path63103" />
          <path
             inkscape:connector-curvature="0"
             d="m 45.375491,987.5917 0.112014,-0.16613 70.710675,70.71063 -0.11201,0.1662 z"
             id="path63105" />
          <path
             inkscape:connector-curvature="0"
             d="m 45.487505,987.42557 c 0.339198,-0.50937 1.022998,-0.64643 1.532311,-0.30723 l 70.710674,70.71066 c -0.50931,-0.3392 -1.19311,-0.2021 -1.53231,0.3072 z"
             id="path63107" />
          <path
             inkscape:connector-curvature="0"
             d="m 47.019816,987.11834 1.873744,1.24787 70.71068,70.71069 -1.87375,-1.2479 z"
             id="path63109" />
          <path
             inkscape:connector-curvature="0"
             d="m 48.89356,988.36621 c 0.04369,0.029 0.08225,0.0622 0.117773,0.0977 l 70.710677,70.71069 c -0.0355,-0.035 -0.0741,-0.069 -0.11777,-0.098 z"
             id="path63111" />
          <path
             inkscape:connector-curvature="0"
             d="m 49.011333,988.46392 c 0.04292,0.0429 0.08142,0.0893 0.119184,0.13604 l 70.710683,70.71064 c -0.0378,-0.047 -0.0763,-0.093 -0.11919,-0.136 z"
             id="path63113" />
          <path
             inkscape:connector-curvature="0"
             d="m 49.130517,988.59996 c 1.27612,-1.45869 2.806848,-2.7246 4.551969,-3.75194 l 70.710674,70.71068 c -1.74512,1.0273 -3.27584,2.2932 -4.55196,3.7519 z"
             id="path63115" />
          <path
             inkscape:connector-curvature="0"
             d="m 53.682486,984.84802 c -0.09702,-0.1285 -0.194052,-0.25677 -0.271418,-0.41315 l 70.710682,70.71063 c 0.0774,0.1564 0.17439,0.2847 0.27141,0.4132 z"
             id="path63117" />
          <path
             inkscape:connector-curvature="0"
             d="m 53.411068,984.43487 -0.662276,-1.34182 70.710678,70.71065 0.66228,1.3418 z"
             id="path63119" />
          <path
             inkscape:connector-curvature="0"
             d="m 52.748792,983.09305 c -0.418378,-0.84495 -0.334813,-1.73184 0.18878,-1.991 l 70.710678,70.71065 c -0.52359,0.2592 -0.60716,1.1461 -0.18878,1.991 z"
             id="path63121" />
          <path
             inkscape:connector-curvature="0"
             d="m 52.937572,981.10205 0.271907,-0.13461 70.710681,70.71066 -0.27191,0.1346 z"
             id="path63123" />
          <path
             inkscape:connector-curvature="0"
             d="m 53.209479,980.96744 c 0.359086,-0.1778 0.828532,-0.0117 1.22302,0.38281 l 70.710681,70.71065 c -0.39449,-0.3945 -0.86394,-0.5606 -1.22302,-0.3828 z"
             id="path63125" />
          <path
             inkscape:connector-curvature="0"
             d="m 54.432499,981.35025 c 0.180773,0.18077 0.345805,0.4095 0.477264,0.67506 l 70.710677,70.71069 c -0.13146,-0.2656 -0.29649,-0.4943 -0.47726,-0.6751 z"
             id="path63127" />
          <path
             inkscape:connector-curvature="0"
             d="m 54.909763,982.02531 0.66309,1.33939 70.710677,70.7107 -0.66309,-1.3394 z"
             id="path63129" />
          <path
             inkscape:connector-curvature="0"
             d="m 55.572853,983.3647 c 0.07417,0.14972 0.113705,0.29805 0.156533,0.44705 l 70.710674,70.71065 c -0.0428,-0.149 -0.0824,-0.2973 -0.15653,-0.447 z"
             id="path63131" />
          <path
             inkscape:connector-curvature="0"
             d="m 55.729386,983.81175 c 1.872933,-0.81325 3.810903,-1.29977 5.752413,-1.47067 l 70.710681,70.71072 c -1.94151,0.1709 -3.87948,0.6574 -5.75242,1.4706 z"
             id="path63133" />
          <path
             inkscape:connector-curvature="0"
             d="m 61.481799,982.34108 c -0.01623,-0.1489 -0.0378,-0.29573 -0.02751,-0.45658 l 70.710681,70.7107 c -0.0103,0.1608 0.0113,0.3077 0.0275,0.4566 z"
             id="path63135" />
          <path
             inkscape:connector-curvature="0"
             d="m 61.454289,981.8845 0.08024,-1.23091 70.710681,70.71071 -0.0802,1.2309 z"
             id="path63137" />
          <path
             inkscape:connector-curvature="0"
             d="m 61.534529,980.65359 c 0.06021,-0.94096 0.577539,-1.66936 1.160626,-1.63203 l 70.710675,70.71064 c -0.58308,-0.037 -1.10041,0.6911 -1.16062,1.6321 z"
             id="path63139" />
          <path
             inkscape:connector-curvature="0"
             d="m 62.695155,979.02156 0.30147,0.0179 70.710675,70.71064 -0.30147,-0.018 z"
             id="path63141" />
          <path
             inkscape:connector-curvature="0"
             d="m 62.996625,979.03946 c 0.182996,0.0117 0.350012,0.0974 0.49119,0.23858 l 70.710675,70.71066 c -0.14117,-0.1412 -0.30819,-0.2269 -0.49119,-0.2386 z"
             id="path63143" />
          <path
             inkscape:connector-curvature="0"
             d="m 63.487815,979.27804 c 0.308653,0.30865 0.493809,0.88251 0.452472,1.52824 l 70.710683,70.71072 c 0.0413,-0.6458 -0.14382,-1.2196 -0.45248,-1.5283 z"
             id="path63145" />
          <path
             inkscape:connector-curvature="0"
             d="m 63.940287,980.80628 -0.07859,1.23428 70.710683,70.71064 0.0786,-1.2342 z"
             id="path63147" />
          <path
             inkscape:connector-curvature="0"
             d="m 63.861697,982.04056 c -0.0053,0.081 -0.03099,0.14836 -0.04278,0.22598 l 70.710683,70.71066 c 0.0118,-0.078 0.0375,-0.145 0.0428,-0.226 z"
             id="path63149" />
          <path
             inkscape:connector-curvature="0"
             d="m 63.818917,982.26654 c 1.799557,0.0692 3.573303,0.39888 5.266185,0.97062 l 70.710678,70.71064 c -1.69288,-0.5717 -3.46663,-0.9014 -5.26618,-0.9706 z"
             id="path63151" />
          <path
             inkscape:connector-curvature="0"
             d="m 69.085102,983.23716 c 0.319969,0.10806 0.629839,0.2429 0.943316,0.36893 l 70.710682,70.71071 c -0.31348,-0.1261 -0.62335,-0.2609 -0.94332,-0.369 z"
             id="path63153" />
          <path
             inkscape:connector-curvature="0"
             d="m 70.028418,983.60609 c 0.06052,-0.16077 0.124972,-0.32181 0.228033,-0.47652 l 70.710679,70.71063 c -0.10306,0.1548 -0.16751,0.3158 -0.22803,0.4766 z"
             id="path63155" />
          <path
             inkscape:connector-curvature="0"
             d="m 70.256451,983.12957 0.786105,-1.17703 70.710674,70.71066 -0.7861,1.177 z"
             id="path63157" />
          <path
             inkscape:connector-curvature="0"
             d="m 71.042556,981.95254 c 0.457326,-0.68675 1.179345,-1.02713 1.726279,-0.85672 l 70.710675,70.71068 c -0.54693,-0.1704 -1.26895,0.17 -1.72628,0.8567 z"
             id="path63159" />
          <path
             inkscape:connector-curvature="0"
             d="m 68.494718,984.98503 c -4.062413,-1.372 -8.647577,-1.19621 -12.800696,0.85986 l 70.710678,70.71071 c 4.15312,-2.0561 8.73828,-2.2319 12.8007,-0.8599 z"
             id="path63161" />
          <path
             inkscape:connector-curvature="0"
             d="m 55.694022,985.84489 c -8.020907,3.97087 -11.390171,13.45998 -7.91411,21.58731 l 70.710678,70.7107 c -3.47606,-8.1274 -0.1068,-17.6165 7.91411,-21.5873 z"
             id="path63163" />
          <path
             inkscape:connector-curvature="0"
             d="m 47.779912,1007.4322 11.769176,-5.8266 70.710682,70.7107 -11.76918,5.8266 z"
             id="path63165" />
          <path
             inkscape:connector-curvature="0"
             d="m 65.853012,998.48542 11.802761,-5.84325 70.710677,70.71063 -11.80276,5.8433 z"
             id="path63167" />
          <path
             inkscape:connector-curvature="0"
             d="m 77.655773,992.64217 c -0.783111,-1.38294 -1.729938,-2.62141 -2.805633,-3.6971 l 70.71068,70.71063 c 1.07569,1.0757 2.02252,2.3142 2.80563,3.6971 z"
             id="path63169" />
          <path
             inkscape:connector-curvature="0"
             d="m 74.85014,988.94507 c -1.809261,-1.80926 -3.983081,-3.15806 -6.355649,-3.95935 l 70.710679,70.71068 c 2.37257,0.8013 4.54639,2.1501 6.35565,3.9593 z"
             id="path63171" />
        </g>
        <path
           id="path62661"
           d="m 74.952234,974.432 a 31.035935,31.035935 0 0 0 -24.129511,1.44242 31.035935,31.035935 0 0 0 -14.709432,40.05238 l -0.396994,0.1987 c -0.86999,0.4333 -0.530892,2.8967 0.762106,5.5244 l 0.479436,0.9726 c 1.293094,2.6274 3.034219,4.3937 3.90421,3.9604 l 56.073742,-27.92765 c 0.869993,-0.43329 0.528385,-2.89758 -0.764647,-5.52515 l -0.476923,-0.9718 c -1.29303,-2.62757 -3.034208,-4.3937 -3.904191,-3.96041 l -0.2459,0.12383 A 31.035935,31.035935 0 0 0 74.952234,974.432 Z m -2.183078,6.66264 -0.0016,0.005 c 0.07783,0.0252 0.152202,0.0588 0.221519,0.10563 0.556077,0.3703 0.58139,1.30102 0.05876,2.0858 l -0.783593,1.17787 c -0.03365,0.0504 -0.07978,0.0821 -0.116103,0.12853 2.043132,1.12888 3.880523,2.6529 5.401245,4.51912 0.07533,-0.0647 0.14463,-0.13665 0.237758,-0.1825 l 1.795922,-0.8891 c 0.598753,-0.29647 1.317127,-0.0539 1.613526,0.54494 0.296442,0.59865 0.05297,1.31957 -0.545783,1.61603 l -1.706139,0.84676 c 0.311008,0.50179 0.60358,1.02081 0.870778,1.56047 l 0.412995,0.83 -12.715828,6.29527 a 4.5804758,4.5804758 0 0 1 0.826945,4.39704 4.5804758,4.5804758 0 0 1 -5.804892,2.876 4.5804758,4.5804758 0 0 1 -2.997945,-3.3244 l -11.849688,5.8663 -0.832516,0.4122 -0.412133,-0.8326 c -0.267201,-0.5396 -0.499171,-1.0886 -0.709662,-1.6402 l -1.654912,0.8193 c -0.598797,0.2966 -1.264106,0.161 -1.493871,-0.3033 l -0.241788,-0.4843 c -0.229796,-0.4641 0.06921,-1.0771 0.667945,-1.3735 l 2.014933,-0.9995 c -0.530997,-2.2435 -0.646569,-4.5259 -0.347757,-6.74302 l -1.74422,-0.1083 c -0.880919,-0.0563 -1.562211,-0.57193 -1.524792,-1.15533 l 0.02131,-0.30312 c 0.03726,-0.58292 0.776125,-1.00605 1.65711,-0.94991 l 1.882341,0.12149 c 0.07006,0.009 0.130478,0.0293 0.198711,0.0407 0.535679,-1.99235 1.393328,-3.89074 2.555035,-5.6118 -0.05277,-0.0321 -0.113307,-0.0383 -0.166318,-0.0704 l -1.873783,-1.24774 c -0.509323,-0.33919 -0.646372,-1.023 -0.307175,-1.53237 l 0.112014,-0.16613 c 0.339198,-0.50937 1.022998,-0.64643 1.532311,-0.30723 l 1.873744,1.24787 c 0.09647,0.0641 0.16793,0.14833 0.236957,0.23375 1.27612,-1.45869 2.806848,-2.7246 4.551969,-3.75194 -0.09702,-0.1285 -0.194052,-0.25677 -0.271418,-0.41315 l -0.662276,-1.34182 c -0.418378,-0.84495 -0.334813,-1.73184 0.18878,-1.991 l 0.271907,-0.13461 c 0.523637,-0.25928 1.281952,0.21279 1.700284,1.05787 l 0.66309,1.33939 c 0.07417,0.14972 0.113705,0.29805 0.156533,0.44705 1.872933,-0.81325 3.810903,-1.29977 5.752413,-1.47067 -0.01623,-0.1489 -0.0378,-0.29573 -0.02751,-0.45658 l 0.08024,-1.23091 c 0.06021,-0.94096 0.577539,-1.66936 1.160626,-1.63203 l 0.30147,0.0179 c 0.583075,0.0373 1.003907,0.82573 0.943662,1.76682 l -0.07859,1.23428 c -0.0053,0.081 -0.03099,0.14836 -0.04278,0.22598 1.799557,0.0692 3.573303,0.39888 5.266185,0.97062 0.319969,0.10806 0.629839,0.2429 0.943316,0.36893 0.06052,-0.16077 0.124972,-0.32181 0.228033,-0.47652 l 0.786105,-1.17703 c 0.457326,-0.68675 1.179345,-1.02713 1.726279,-0.85672 z m -4.274438,3.89039 c -4.062413,-1.372 -8.647577,-1.19621 -12.800696,0.85986 -8.020907,3.97087 -11.390171,13.45998 -7.91411,21.58731 l 11.769176,-5.8266 a 4.5804758,4.5804758 0 0 1 0.110469,-0.4015 4.5804758,4.5804758 0 0 1 5.806523,-2.87258 4.5804758,4.5804758 0 0 1 0.386932,0.1539 l 11.802761,-5.84325 c -2.100261,-3.70898 -5.378105,-6.37875 -9.161282,-7.65645 z"
           style="color:#000000;clip-rule:nonzero;display:inline;overflow:visible;visibility:visible;opacity:1;isolation:auto;mix-blend-mode:normal;color-interpolation:sRGB;color-interpolation-filters:linearRGB;solid-color:#000000;solid-opacity:1;fill:#000000;fill-opacity:1;fill-rule:evenodd;stroke:none;stroke-width:1.19730532px;stroke-linecap:butt;stroke-linejoin:miter;stroke-miterlimit:4;stroke-dasharray:none;stroke-dashoffset:0;stroke-opacity:1;color-rendering:auto;image-rendering:auto;shape-rendering:auto;text-rendering:auto;enable-background:accumulate"
           inkscape:connector-curvature="0" />
      </g>
      <path
         inkscape:connector-curvature="0"
         style="color:#000000;clip-rule:nonzero;display:inline;overflow:visible;visibility:visible;opacity:1;isolation:auto;mix-blend-mode:normal;color-interpolation:sRGB;color-interpolation-filters:linearRGB;solid-color:#000000;solid-opacity:1;fill:#ffffff;fill-opacity:1;fill-rule:evenodd;stroke:none;stroke-width:1.19730532px;stroke-linecap:butt;stroke-linejoin:miter;stroke-miterlimit:4;stroke-dasharray:none;stroke-dashoffset:0;stroke-opacity:1;color-rendering:auto;image-rendering:auto;shape-rendering:auto;text-rendering:auto;enable-background:accumulate"
         d="m 74.952234,974.432 a 31.035935,31.035935 0 0 0 -24.129511,1.44242 31.035935,31.035935 0 0 0 -14.709432,40.05238 l -0.396994,0.1987 c -0.86999,0.4333 -0.530892,2.8967 0.762106,5.5244 l 0.479436,0.9726 c 1.293094,2.6274 3.034219,4.3937 3.90421,3.9604 l 56.073742,-27.92765 c 0.869993,-0.43329 0.528385,-2.89758 -0.764647,-5.52515 l -0.476923,-0.9718 c -1.29303,-2.62757 -3.034208,-4.3937 -3.904191,-3.96041 l -0.2459,0.12383 A 31.035935,31.035935 0 0 0 74.952234,974.432 Z m -2.183078,6.66264 -0.0016,0.005 c 0.07783,0.0252 0.152202,0.0588 0.221519,0.10563 0.556077,0.3703 0.58139,1.30102 0.05876,2.0858 l -0.783593,1.17787 c -0.03365,0.0504 -0.07978,0.0821 -0.116103,0.12853 2.043132,1.12888 3.880523,2.6529 5.401245,4.51912 0.07533,-0.0647 0.14463,-0.13665 0.237758,-0.1825 l 1.795922,-0.8891 c 0.598753,-0.29647 1.317127,-0.0539 1.613526,0.54494 0.296442,0.59865 0.05297,1.31957 -0.545783,1.61603 l -1.706139,0.84676 c 0.311008,0.50179 0.60358,1.02081 0.870778,1.56047 l 0.412995,0.83 -12.715828,6.29527 a 4.5804758,4.5804758 0 0 1 0.826945,4.39704 4.5804758,4.5804758 0 0 1 -5.804892,2.876 4.5804758,4.5804758 0 0 1 -2.997945,-3.3244 l -11.849688,5.8663 -0.832516,0.4122 -0.412133,-0.8326 c -0.267201,-0.5396 -0.499171,-1.0886 -0.709662,-1.6402 l -1.654912,0.8193 c -0.598797,0.2966 -1.264106,0.161 -1.493871,-0.3033 l -0.241788,-0.4843 c -0.229796,-0.4641 0.06921,-1.0771 0.667945,-1.3735 l 2.014933,-0.9995 c -0.530997,-2.2435 -0.646569,-4.5259 -0.347757,-6.74302 l -1.74422,-0.1083 c -0.880919,-0.0563 -1.562211,-0.57193 -1.524792,-1.15533 l 0.02131,-0.30312 c 0.03726,-0.58292 0.776125,-1.00605 1.65711,-0.94991 l 1.882341,0.12149 c 0.07006,0.009 0.130478,0.0293 0.198711,0.0407 0.535679,-1.99235 1.393328,-3.89074 2.555035,-5.6118 -0.05277,-0.0321 -0.113307,-0.0383 -0.166318,-0.0704 l -1.873783,-1.24774 c -0.509323,-0.33919 -0.646372,-1.023 -0.307175,-1.53237 l 0.112014,-0.16613 c 0.339198,-0.50937 1.022998,-0.64643 1.532311,-0.30723 l 1.873744,1.24787 c 0.09647,0.0641 0.16793,0.14833 0.236957,0.23375 1.27612,-1.45869 2.806848,-2.7246 4.551969,-3.75194 -0.09702,-0.1285 -0.194052,-0.25677 -0.271418,-0.41315 l -0.662276,-1.34182 c -0.418378,-0.84495 -0.334813,-1.73184 0.18878,-1.991 l 0.271907,-0.13461 c 0.523637,-0.25928 1.281952,0.21279 1.700284,1.05787 l 0.66309,1.33939 c 0.07417,0.14972 0.113705,0.29805 0.156533,0.44705 1.872933,-0.81325 3.810903,-1.29977 5.752413,-1.47067 -0.01623,-0.1489 -0.0378,-0.29573 -0.02751,-0.45658 l 0.08024,-1.23091 c 0.06021,-0.94096 0.577539,-1.66936 1.160626,-1.63203 l 0.30147,0.0179 c 0.583075,0.0373 1.003907,0.82573 0.943662,1.76682 l -0.07859,1.23428 c -0.0053,0.081 -0.03099,0.14836 -0.04278,0.22598 1.799557,0.0692 3.573303,0.39888 5.266185,0.97062 0.319969,0.10806 0.629839,0.2429 0.943316,0.36893 0.06052,-0.16077 0.124972,-0.32181 0.228033,-0.47652 l 0.786105,-1.17703 c 0.457326,-0.68675 1.179345,-1.02713 1.726279,-0.85672 z m -4.274438,3.89039 c -4.062413,-1.372 -8.647577,-1.19621 -12.800696,0.85986 -8.020907,3.97087 -11.390171,13.45998 -7.91411,21.58731 l 11.769176,-5.8266 a 4.5804758,4.5804758 0 0 1 0.110469,-0.4015 4.5804758,4.5804758 0 0 1 5.806523,-2.87258 4.5804758,4.5804758 0 0 1 0.386932,0.1539 l 11.802761,-5.84325 c -2.100261,-3.70898 -5.378105,-6.37875 -9.161282,-7.65645 z"
         id="rect41675" />
    </g>
  </g>
</svg>
